<mxfile host="app.diagrams.net" modified="2024-02-15T04:05:20.781Z" agent="Mozilla/5.0 (Windows NT 10.0; Win64; x64) AppleWebKit/537.36 (KHTML, like Gecko) Chrome/121.0.0.0 Safari/537.36" etag="o4bx--svRzsbla_uBVw4" version="23.0.1" type="device">
  <diagram name="Страница — 1" id="f6mGqc89Dm3A2QiHwG-W">
    <mxGraphModel dx="1050" dy="557" grid="1" gridSize="10" guides="1" tooltips="1" connect="1" arrows="1" fold="1" page="1" pageScale="1" pageWidth="827" pageHeight="1169" math="0" shadow="0">
      <root>
        <mxCell id="0" />
        <mxCell id="1" parent="0" />
        <mxCell id="BvQ2zlWcKMTeXFyQWcYa-7" style="edgeStyle=orthogonalEdgeStyle;rounded=0;orthogonalLoop=1;jettySize=auto;html=1;exitX=0.5;exitY=1;exitDx=0;exitDy=0;entryX=0;entryY=0.5;entryDx=0;entryDy=0;" edge="1" parent="1" source="BvQ2zlWcKMTeXFyQWcYa-2" target="BvQ2zlWcKMTeXFyQWcYa-3">
          <mxGeometry relative="1" as="geometry" />
        </mxCell>
        <mxCell id="BvQ2zlWcKMTeXFyQWcYa-10" style="edgeStyle=orthogonalEdgeStyle;rounded=0;orthogonalLoop=1;jettySize=auto;html=1;exitX=0.5;exitY=1;exitDx=0;exitDy=0;entryX=0;entryY=0.5;entryDx=0;entryDy=0;" edge="1" parent="1" source="BvQ2zlWcKMTeXFyQWcYa-2" target="BvQ2zlWcKMTeXFyQWcYa-5">
          <mxGeometry relative="1" as="geometry" />
        </mxCell>
        <mxCell id="BvQ2zlWcKMTeXFyQWcYa-2" value="1. Data Preprocessing" style="rounded=0;whiteSpace=wrap;html=1;" vertex="1" parent="1">
          <mxGeometry x="120" y="270" width="120" height="60" as="geometry" />
        </mxCell>
        <mxCell id="BvQ2zlWcKMTeXFyQWcYa-8" style="edgeStyle=orthogonalEdgeStyle;rounded=0;orthogonalLoop=1;jettySize=auto;html=1;exitX=1;exitY=0.5;exitDx=0;exitDy=0;" edge="1" parent="1" source="BvQ2zlWcKMTeXFyQWcYa-3" target="BvQ2zlWcKMTeXFyQWcYa-4">
          <mxGeometry relative="1" as="geometry" />
        </mxCell>
        <mxCell id="BvQ2zlWcKMTeXFyQWcYa-3" value="2. Data Integration" style="rounded=0;whiteSpace=wrap;html=1;" vertex="1" parent="1">
          <mxGeometry x="290" y="330" width="120" height="60" as="geometry" />
        </mxCell>
        <mxCell id="BvQ2zlWcKMTeXFyQWcYa-11" style="edgeStyle=orthogonalEdgeStyle;rounded=0;orthogonalLoop=1;jettySize=auto;html=1;exitX=0.5;exitY=1;exitDx=0;exitDy=0;entryX=0;entryY=0.5;entryDx=0;entryDy=0;" edge="1" parent="1" source="BvQ2zlWcKMTeXFyQWcYa-4" target="BvQ2zlWcKMTeXFyQWcYa-5">
          <mxGeometry relative="1" as="geometry" />
        </mxCell>
        <mxCell id="BvQ2zlWcKMTeXFyQWcYa-4" value="3. Data Analysis and Visualizatio" style="rounded=0;whiteSpace=wrap;html=1;" vertex="1" parent="1">
          <mxGeometry x="490" y="330" width="120" height="60" as="geometry" />
        </mxCell>
        <mxCell id="BvQ2zlWcKMTeXFyQWcYa-13" style="edgeStyle=orthogonalEdgeStyle;rounded=0;orthogonalLoop=1;jettySize=auto;html=1;exitX=0.5;exitY=1;exitDx=0;exitDy=0;entryX=0.5;entryY=0;entryDx=0;entryDy=0;" edge="1" parent="1" source="BvQ2zlWcKMTeXFyQWcYa-5" target="BvQ2zlWcKMTeXFyQWcYa-6">
          <mxGeometry relative="1" as="geometry" />
        </mxCell>
        <mxCell id="BvQ2zlWcKMTeXFyQWcYa-5" value="4. Benchmarking ML Models" style="rounded=0;whiteSpace=wrap;html=1;" vertex="1" parent="1">
          <mxGeometry x="630" y="430" width="120" height="60" as="geometry" />
        </mxCell>
        <mxCell id="BvQ2zlWcKMTeXFyQWcYa-6" value="5. Reporting and Documentation" style="rounded=0;whiteSpace=wrap;html=1;" vertex="1" parent="1">
          <mxGeometry x="630" y="540" width="120" height="60" as="geometry" />
        </mxCell>
      </root>
    </mxGraphModel>
  </diagram>
</mxfile>
